<?xml version="1.0" standalone="no"?>
<!DOCTYPE svg PUBLIC "-//W3C//DTD SVG 20010904//EN"
 "http://www.w3.org/TR/2001/REC-SVG-20010904/DTD/svg10.dtd">
<svg version="1.0" xmlns="http://www.w3.org/2000/svg"
 width="2084.000000pt" height="2084.000000pt" viewBox="0 0 2084.000000 2084.000000"
 preserveAspectRatio="xMidYMid meet">
<metadata>
Created by potrace 1.14, written by Peter Selinger 2001-2017
</metadata>
<g transform="translate(0.000000,2084.000000) scale(0.100000,-0.100000)"
fill="#000000" stroke="none">
<path d="M0 10425 l0 -10415 10415 0 10415 0 0 10415 0 10415 -10415 0 -10415
0 0 -10415z m14358 6848 c1692 -5 2042 -9 2042 -20 0 -9 13 -13 40 -13 36 0
40 -2 40 -25 0 -24 -2 -25 -82 -27 l-83 -2 83 -3 c64 -3 82 -7 82 -18 0 -12
-18 -15 -82 -17 l-83 -2 83 -3 82 -4 0 -29 c0 -27 -3 -29 -42 -33 -24 -2 13
-5 82 -7 141 -4 111 -7 -215 -20 l-230 -8 285 2 c215 3 250 2 145 -4 -77 -4
-2965 -8 -6417 -9 l-6278 -1 0 -6604 0 -6603 6208 -7 c3414 -4 6228 -9 6255
-12 28 -4 47 -11 47 -19 0 -9 21 -12 80 -10 l80 2 0 -38 0 -39 -80 0 c-47 0
-80 -4 -80 -10 0 -6 33 -10 80 -10 73 0 80 -2 80 -20 0 -17 -7 -20 -40 -20
-22 0 -40 -4 -40 -10 0 -6 -79 -11 -202 -13 -176 -2 -160 -3 122 -7 l325 -4
-245 -6 c-153 -3 -199 -6 -122 -8 73 -1 122 -6 122 -12 0 -7 -2145 -10 -6415
-10 l-6415 0 0 6855 0 6855 4373 0 c2406 0 5292 -3 6415 -7z m2647 -223 c3 -5
1 -10 -4 -10 -6 0 -11 5 -11 10 0 6 2 10 4 10 3 0 8 -4 11 -10z m-965 -200
c-39 -6 -33 -7 38 -8 l82 -2 0 -170 0 -170 -120 0 c-73 0 -120 -4 -120 -10 0
-6 47 -10 120 -10 113 0 120 -1 120 -20 0 -18 -7 -20 -80 -20 -45 0 -80 -4
-80 -10 0 -6 -66 -11 -162 -13 -109 -2 -55 -4 162 -7 l325 -4 -245 -6 c-135
-3 -208 -7 -162 -8 46 -1 82 -6 82 -12 0 -7 -1928 -10 -5765 -10 l-5765 0 0
-5945 0 -5945 3843 0 c5156 0 7687 -9 7687 -27 0 -10 20 -13 80 -13 79 0 80 0
80 -25 l0 -25 -122 -2 -123 -2 123 -3 122 -4 0 -169 0 -170 -82 -1 c-77 -2
-80 -2 -33 -9 28 -4 100 -6 160 -5 88 2 79 1 -47 -7 -87 -6 -158 -15 -158 -19
0 -5 -2624 -9 -6004 -9 l-6004 0 -6 22 c-8 30 -8 12812 0 12832 6 15 547 16
6053 14 3325 0 6026 -4 6001 -8z m183 -427 c-13 -2 -33 -2 -45 0 -13 2 -3 4
22 4 25 0 35 -2 23 -4z m137 -3 c0 -13 -11 -13 -30 0 -12 8 -11 10 8 10 12 0
22 -4 22 -10z m37 -6 c-3 -3 -12 -4 -19 -1 -8 3 -5 6 6 6 11 1 17 -2 13 -5z
m-119 -41 c-21 -2 -57 -2 -80 0 -24 2 -7 4 37 4 44 0 63 -2 43 -4z m-5933
-1543 c3 -6 -1 -11 -9 -11 -29 -3 -34 -4 -43 -12 -4 -5 -2 -7 6 -5 7 2 16 -3
18 -9 3 -7 -2 -13 -11 -13 -9 0 -16 -4 -16 -10 0 -5 19 -11 43 -11 29 -2 34
-3 15 -6 -16 -2 -28 -9 -28 -14 0 -6 10 -7 23 -4 22 7 22 7 2 -8 -34 -26 -9
-30 32 -5 58 37 63 40 63 35 0 -3 -20 -18 -45 -34 -25 -15 -45 -31 -45 -34 0
-4 -7 -9 -14 -12 -10 -4 -13 -1 -9 9 3 7 0 14 -6 14 -6 0 -8 7 -5 15 4 9 0 15
-10 15 -18 0 -21 -31 -5 -47 12 -12 4 -33 -12 -33 -6 0 -7 5 -4 10 3 6 0 10
-9 10 -8 0 -16 -4 -18 -9 -2 -4 -142 -13 -313 -20 -854 -31 -1349 -128 -1801
-353 -157 -79 -287 -158 -415 -254 -492 -371 -754 -789 -865 -1379 -14 -77
-28 -151 -30 -164 -5 -22 -8 -23 -69 -19 -35 2 -68 7 -72 12 -6 6 110 1979
134 2284 l6 72 1753 0 c1145 0 1755 -4 1759 -10z m75 -5 c-7 -9 -15 -13 -19
-10 -3 3 1 10 9 15 21 14 24 12 10 -5z m2940 5 c0 -5 -18 -10 -40 -10 -22 0
-40 -4 -40 -10 0 -5 18 -10 39 -10 l40 0 1 -291 c0 -196 -3 -288 -10 -284 -12
7 -12 3 -4 -19 3 -9 9 -14 13 -12 3 2 6 -12 6 -31 0 -27 -5 -38 -20 -43 -11
-4 -23 -6 -27 -4 -3 2 -4 -5 -1 -16 7 -26 11 -25 47 8 l29 27 -29 -42 c-16
-22 -33 -39 -38 -35 -5 3 -7 -2 -3 -10 3 -9 -1 -24 -8 -35 -8 -10 -15 -13 -15
-7 0 5 5 15 12 22 9 9 9 12 -1 12 -9 0 -11 9 -6 30 4 20 3 30 -5 30 -9 0 -11
-18 -7 -60 2 -33 1 -60 -4 -60 -5 0 -9 -7 -9 -15 0 -8 -6 -12 -12 -10 -17 6
-45 -12 -35 -22 5 -4 12 -1 17 7 6 8 10 11 10 6 0 -10 -39 -76 -46 -76 -2 0 2
11 8 25 6 14 8 28 5 32 -11 10 -16 0 -19 -38 -2 -38 -31 -93 -42 -82 -4 4 -5
1 -2 -7 3 -8 -11 -37 -30 -64 -28 -38 -38 -46 -46 -35 -8 11 -9 10 -4 -3 7
-23 -63 -146 -76 -133 -3 3 -5 -1 -5 -8 0 -22 -45 -87 -56 -80 -6 3 -7 1 -3
-5 11 -18 -4 -37 -16 -21 -7 11 -8 10 -4 -4 7 -22 -22 -69 -37 -60 -6 4 -7 1
-2 -6 6 -10 -70 -138 -96 -161 -3 -3 -16 -23 -29 -45 -13 -22 -112 -173 -219
-335 -271 -412 -384 -584 -486 -740 -49 -74 -152 -232 -230 -350 -78 -118
-171 -260 -207 -315 -36 -55 -143 -219 -239 -365 -96 -146 -310 -470 -474
-720 -283 -428 -428 -649 -898 -1360 -334 -505 -864 -1308 -1042 -1577 -93
-142 -277 -422 -410 -623 -132 -201 -297 -450 -365 -555 -68 -104 -132 -199
-141 -210 -18 -20 -29 -20 -789 -17 l-772 2 4 78 3 77 2252 3375 c1238 1856
2444 3663 2680 4015 236 352 498 744 583 870 84 127 182 272 218 323 l63 92
535 0 c349 0 534 -3 534 -10z m-2864 -39 c-6 -9 -46 -22 -46 -15 0 3 10 9 23
14 29 11 29 11 23 1z m3155 -258 c-12 -20 -14 -14 -5 12 4 9 9 14 11 11 3 -2
0 -13 -6 -23z m-30 -50 c-12 -20 -14 -14 -5 12 4 9 9 14 11 11 3 -2 0 -13 -6
-23z m-53 -82 c-13 -22 -29 -23 -36 -3 -2 7 2 10 12 6 10 -4 18 0 22 10 4 9 8
15 11 12 2 -2 -2 -14 -9 -25z m-37 -54 c-10 -9 -11 -8 -5 6 3 10 9 15 12 12 3
-3 0 -11 -7 -18z m-84 -9 c-3 -8 -6 -5 -6 6 -1 11 2 17 5 13 3 -3 4 -12 1 -19z
m35 0 c-7 -7 -12 -8 -12 -2 0 14 12 26 19 19 2 -3 -1 -11 -7 -17z m16 -33 c-6
-14 -13 -23 -16 -21 -7 7 9 46 18 46 5 0 4 -11 -2 -25z m-38 -15 c0 -5 -5 -10
-11 -10 -5 0 -7 5 -4 10 3 6 8 10 11 10 2 0 4 -4 4 -10z m13 -37 c-3 -7 -6
-13 -8 -13 -2 0 -5 6 -8 13 -3 8 1 14 8 14 7 0 11 -6 8 -14z m-79 -68 c-4 -8
-1 -15 5 -15 6 0 11 5 11 12 0 6 3 9 6 6 3 -4 0 -17 -7 -29 l-12 -23 -9 23
c-4 12 -6 27 -2 32 9 14 14 10 8 -6z m797 -5516 c-5 -13 -10 -19 -10 -12 -1
15 10 45 15 40 3 -2 0 -15 -5 -28z m-50 -259 c5 0 9 -7 9 -16 0 -8 -4 -13 -9
-10 -12 8 -19 -82 -7 -94 7 -7 6 -10 -1 -10 -16 0 -22 22 -16 55 4 21 3 26 -7
20 -9 -6 -10 -3 -1 13 6 11 12 36 12 54 1 23 3 26 6 11 2 -13 9 -23 14 -23z
m11 -85 c3 -13 1 -22 -3 -19 -9 5 -13 44 -5 44 2 0 6 -11 8 -25z m-56 -12
c-10 -10 -19 5 -10 18 6 11 8 11 12 0 2 -7 1 -15 -2 -18z m1 -29 c-3 -3 -12
-4 -19 -1 -8 3 -5 6 6 6 11 1 17 -2 13 -5z m-26 -93 c-6 -11 -11 -28 -10 -38
0 -16 1 -16 9 2 7 16 8 14 7 -12 -2 -42 -11 -42 -24 0 -9 32 -9 32 -10 -14 -1
-41 1 -46 18 -42 10 3 19 0 19 -6 0 -6 -7 -11 -15 -11 -8 0 -15 -7 -15 -16 0
-9 6 -14 13 -11 8 3 14 -4 15 -16 1 -18 -1 -19 -9 -7 -8 11 -9 8 -2 -10 4 -14
9 -263 10 -555 1 -291 2 -565 2 -608 1 -49 5 -76 11 -72 13 8 13 -47 1 -60
-12 -13 -15 -110 -13 -390 2 -165 5 -226 13 -215 7 11 9 11 7 1 -3 -10 -24
-13 -81 -13 -42 0 -77 -4 -77 -9 0 -5 31 -9 70 -9 66 0 70 -1 76 -25 3 -14 12
-25 20 -25 8 0 14 -4 14 -9 0 -10 -26 -9 -36 2 -11 11 -84 8 -84 -3 0 -6 -740
-10 -2160 -10 -1188 0 -2160 2 -2160 4 0 2 123 45 273 94 l272 90 240 7 c132
3 272 8 310 10 326 21 411 28 560 46 1101 130 1760 457 2261 1122 42 56 81
101 86 99 5 -1 7 2 3 8 -3 5 7 29 23 52 15 24 41 64 56 91 16 28 32 45 38 41
7 -4 8 -2 4 4 -4 6 -2 21 5 33 9 18 13 19 21 8 8 -11 9 -10 4 4 -7 22 66 161
79 150 4 -5 5 -3 2 3 -8 13 36 118 57 140 8 7 16 10 20 7 3 -4 6 1 6 11 0 9
-4 14 -10 11 -12 -8 6 43 23 64 7 8 11 15 9 15 -2 1 1 14 7 29 6 16 11 33 11
38 0 6 8 24 17 42 l18 32 3 -27 c2 -15 -2 -36 -7 -47z m206 -203 c-3 -8 -6 -5
-6 6 -1 11 2 17 5 13 3 -3 4 -12 1 -19z m-30 -450 c-3 -8 -6 -5 -6 6 -1 11 2
17 5 13 3 -3 4 -12 1 -19z m-30 -280 c-3 -7 -5 -2 -5 12 0 14 2 19 5 13 2 -7
2 -19 0 -25z m-30 -10 c-3 -8 -6 -5 -6 6 -1 11 2 17 5 13 3 -3 4 -12 1 -19z
m-7 -117 c0 -32 -6 -24 -14 19 -4 25 -3 31 4 20 5 -8 10 -26 10 -39z m-73 -83
c-3 -7 -5 -2 -5 12 0 14 2 19 5 13 2 -7 2 -19 0 -25z m90 -40 c-3 -8 -6 -5 -6
6 -1 11 2 17 5 13 3 -3 4 -12 1 -19z m0 -120 c-3 -7 -5 -2 -5 12 0 14 2 19 5
13 2 -7 2 -19 0 -25z m-20 -120 c-3 -8 -6 -5 -6 6 -1 11 2 17 5 13 3 -3 4 -12
1 -19z m16 -43 c-3 -9 -8 -14 -10 -11 -3 3 -2 9 2 15 9 16 15 13 8 -4z m-4
-65 c0 -10 -3 -8 -9 5 -12 27 -12 43 0 25 5 -8 9 -22 9 -30z m-12 -92 c-3 -7
-5 -2 -5 12 0 14 2 19 5 13 2 -7 2 -19 0 -25z m2 -68 c0 -10 -3 -8 -9 5 -12
27 -12 43 0 25 5 -8 9 -22 9 -30z m-69 -320 c0 -5 -5 -10 -11 -10 -5 0 -7 5
-4 10 3 6 8 10 11 10 2 0 4 -4 4 -10z m17 -92 c-3 -7 -5 -2 -5 12 0 14 2 19 5
13 2 -7 2 -19 0 -25z m2596 -2465 c-46 -2 -120 -2 -165 0 -46 1 -9 3 82 3 91
0 128 -2 83 -3z m517 -13 c0 -5 -5 -10 -11 -10 -5 0 -7 5 -4 10 3 6 8 10 11
10 2 0 4 -4 4 -10z m-637 -37 c-24 -2 -62 -2 -85 0 -24 2 -5 4 42 4 47 0 66
-2 43 -4z"/>
<path d="M16098 17243 c12 -2 32 -2 45 0 12 2 2 4 -23 4 -25 0 -35 -2 -22 -4z"/>
<path d="M15778 4443 c12 -2 32 -2 45 0 12 2 2 4 -23 4 -25 0 -35 -2 -22 -4z"/>
<path d="M13280 14762 c0 -15 2 -15 10 -2 9 13 10 13 10 0 0 -13 1 -13 10 0 9
13 10 13 10 0 0 -12 2 -13 9 -1 6 9 10 10 14 2 4 -8 5 -8 3 1 -1 6 -17 13 -34
14 -24 2 -32 -2 -32 -14z"/>
<path d="M13300 14181 c0 -7 -4 -9 -10 -6 -6 4 -10 -7 -10 -24 0 -17 4 -31 9
-31 9 0 22 61 15 69 -2 2 -4 -1 -4 -8z"/>
<path d="M13165 13849 c-9 -28 -2 -33 13 -9 6 11 8 21 3 25 -5 3 -13 -4 -16
-16z"/>
<path d="M13125 13850 c4 -6 11 -8 16 -5 14 9 11 15 -7 15 -8 0 -12 -5 -9 -10z"/>
<path d="M13130 13819 c0 -5 5 -7 10 -4 6 3 10 8 10 11 0 2 -4 4 -10 4 -5 0
-10 -5 -10 -11z"/>
<path d="M13133 13785 c-3 -9 -3 -18 -1 -21 3 -3 8 4 11 16 6 23 -1 27 -10 5z"/>
<path d="M13051 13653 c-10 -26 -10 -27 4 -9 8 11 15 23 15 28 0 15 -7 8 -19
-19z"/>
<path d="M12970 13610 c0 -5 5 -10 10 -10 6 0 10 5 10 10 0 6 -4 10 -10 10 -5
0 -10 -4 -10 -10z"/>
<path d="M14061 8223 c-1 -6 -4 -20 -7 -30 -5 -17 -5 -17 6 0 6 10 9 23 6 30
-3 9 -5 9 -5 0z"/>
<path d="M14005 8070 c3 -5 10 -10 16 -10 5 0 9 5 9 10 0 6 -7 10 -16 10 -8 0
-12 -4 -9 -10z"/>
<path d="M13956 7973 c-6 -14 -5 -15 5 -6 7 7 10 15 7 18 -3 3 -9 -2 -12 -12z"/>
<path d="M13995 7960 c-4 -6 0 -22 9 -35 9 -13 16 -31 16 -40 0 -8 7 -15 16
-15 13 0 14 3 4 15 -6 8 -9 19 -5 25 4 6 1 9 -6 8 -6 -2 -14 3 -17 11 -3 8 0
11 7 7 13 -8 14 -4 5 18 -7 18 -20 21 -29 6z"/>
<path d="M13972 7940 c0 -14 2 -19 5 -12 2 6 2 18 0 25 -3 6 -5 1 -5 -13z"/>
<path d="M13991 7896 c-1 -13 -6 -16 -18 -11 -15 5 -16 4 -5 -6 15 -16 37 2
29 23 -4 8 -6 6 -6 -6z"/>
<path d="M13900 7840 c-8 -5 -12 -11 -9 -14 2 -3 11 -1 19 4 8 5 12 11 9 14
-2 3 -11 1 -19 -4z"/>
<path d="M13891 7784 c0 -11 3 -14 6 -6 3 7 2 16 -1 19 -3 4 -6 -2 -5 -13z"/>
<path d="M13865 7769 c-4 -6 -5 -12 -2 -15 2 -3 7 2 10 11 7 17 1 20 -8 4z"/>
<path d="M13890 7745 c0 -8 4 -15 10 -15 5 0 7 7 4 15 -4 8 -8 15 -10 15 -2 0
-4 -7 -4 -15z"/>
<path d="M13816 7653 c-6 -14 -5 -15 5 -6 7 7 10 15 7 18 -3 3 -9 -2 -12 -12z"/>
</g>
</svg>
